<svg xmlns="http://www.w3.org/2000/svg" xmlns:xlink="http://www.w3.org/1999/xlink" xmlns:serif="http://www.serif.com/" width="100%" height="100%" viewBox="0 0 164 58" xml:space="preserve" style="fill-rule:evenodd;clip-rule:evenodd;stroke-linejoin:round;stroke-miterlimit:2;">    <g transform="matrix(1,0,0,1,-346.809,102.552)">        <g transform="matrix(0.0295711,0,0,0.0295711,346.316,-103.046)">            <path d="M1972.91,994.8C1972.91,1534.99 1534.99,1972.9 994.8,1972.9C454.6,1972.9 16.69,1534.99 16.69,994.8C16.69,454.61 454.6,16.69 994.8,16.69C1534.99,16.69 1972.91,454.61 1972.91,994.8Z" style="fill:white;fill-rule:nonzero;"></path>        </g>        <g transform="matrix(0.0269218,0,0,0.0269218,348.951,-100.41)">            <path d="M1989.6,994.8C1989.6,1544.21 1544.21,1989.59 994.8,1989.59C445.382,1989.59 0,1544.21 0,994.8C0,445.392 445.382,0 994.8,0C1544.21,0 1989.6,445.392 1989.6,994.8ZM1956.22,994.8C1956.22,463.828 1525.77,33.38 994.8,33.38C463.818,33.38 33.38,463.828 33.38,994.8C33.38,1525.77 463.818,1956.21 994.8,1956.21C1525.77,1956.21 1956.22,1525.77 1956.22,994.8Z" style="fill:rgb(34,30,31);"></path>        </g>        <g transform="matrix(0.0269218,0,0,0.0269218,348.951,-100.41)">            <path d="M1251.54,1141.8C1200.63,1230.8 1104.72,1290.73 994.77,1290.73C831.41,1290.73 698.92,1158.24 698.92,994.78C698.92,888.24 755.24,794.83 839.73,742.82L796.33,136.38C405.27,226.28 113.83,576.45 113.83,994.78C113.83,1481.35 508.2,1875.82 994.77,1875.82C1368.9,1875.82 1688.61,1642.61 1816.39,1313.48L1251.54,1141.8Z" style="fill:rgb(246,213,80);fill-rule:nonzero;"></path>        </g>        <g transform="matrix(0.0269218,0,0,0.0269218,348.951,-100.41)">            <path d="M310.86,439.55C187.59,591.08 113.83,784.31 113.83,994.78C113.83,1481.35 508.2,1875.82 994.77,1875.82C1169.36,1875.82 1332.22,1825.01 1469.22,1737.22C514.51,1477.24 329.6,833.12 310.86,439.55Z" style="fill:rgb(201,166,3);fill-rule:nonzero;"></path>        </g>        <g transform="matrix(0.0269218,0,0,0.0269218,348.951,-100.41)">            <path d="M1264.3,769.54C1189.86,679.57 1078.96,636.98 970.37,646.02L953.92,797.41C1024.02,780.93 1100.36,803.58 1149.59,861.77C1195.85,922.36 1201.57,1001.79 1170.44,1066.7L1321.84,1083.15C1353.98,979.03 1336.2,861.58 1264.3,769.54Z" style="fill:rgb(0,12,31);fill-rule:nonzero;"></path>        </g>        <g transform="matrix(0.0269218,0,0,0.0269218,348.951,-100.41)">            <path d="M1439.98,628.31C1326.8,489.99 1161.41,418.63 994.95,419.83L980.65,551.34C1113.5,545.8 1247.11,600.5 1337.65,710.55C1425.72,822.63 1450.43,964.86 1416.51,1093.43L1548.03,1107.7C1584.93,945.36 1550.76,768.54 1439.98,628.31Z" style="fill:rgb(0,12,31);fill-rule:nonzero;"></path>        </g>        <g transform="matrix(0.0269218,0,0,0.0269218,348.951,-100.41)">            <path d="M1627.53,477.49C1472.81,287.45 1248.97,185.85 1021.05,179.68L1004.6,331.04C1193.82,332.63 1380.75,415.16 1509.25,572.59C1635.43,731.9 1675.9,932.19 1636.83,1117.33L1788.19,1133.78C1831.1,909.83 1779.91,669.4 1627.53,477.49Z" style="fill:rgb(0,12,31);fill-rule:nonzero;"></path>        </g>        <g transform="matrix(0.0269218,0,0,0.0269218,348.951,-100.41)">            <path d="M876.88,1092.53C817.41,1041.3 810.73,951.56 861.98,892.06C913.22,832.59 1003,825.9 1062.46,877.14C1121.93,928.39 1128.61,1018.13 1077.37,1077.62C1026.11,1137.14 936.33,1143.79 876.88,1092.53Z" style="fill:rgb(0,12,31);fill-rule:nonzero;"></path>        </g>        <g transform="matrix(0.0269218,0,0,0.0269218,358.765,-94.8812)">            <path d="M2200.4,1152.34L2200.4,470.67L2380.46,470.67C2418.14,470.67 2448.02,479 2470.1,495.79C2492.18,512.58 2508.04,536.51 2517.56,567.45C2527.08,598.39 2531.84,635.41 2531.84,678.24C2531.84,719.62 2527.88,755.58 2519.94,786.12C2511.88,816.66 2497.6,840.46 2477.11,857.25C2456.48,874.04 2427.4,882.37 2389.72,882.37L2334.32,882.37L2334.32,1152.34L2200.4,1152.34ZM2334.32,759.95L2342.12,759.95C2367.37,759.95 2382.84,752.94 2388.53,738.66C2394.21,724.51 2397.12,703.49 2397.12,675.86C2397.12,650.08 2394.35,630.12 2388.79,616.1C2383.24,601.96 2370.15,594.95 2349.39,594.95L2334.32,594.95L2334.32,759.95ZM2741.4,1158.55C2625.71,1158.55 2567.94,1098.53 2567.94,978.49L2567.94,745.27C2567.94,690.54 2583.27,646.78 2613.95,614.12C2644.75,581.46 2687.19,565.2 2741.4,565.2C2795.87,565.2 2838.57,581.46 2869.24,614.12C2899.91,646.78 2915.38,690.54 2915.38,745.27L2915.38,978.49C2915.38,1098.53 2857.34,1158.55 2741.4,1158.55ZM2741.4,1051.6C2753.03,1051.6 2761.36,1047.5 2766.38,1039.04C2771.41,1030.71 2773.92,1020 2773.92,1007.04L2773.92,723.19C2773.92,689.35 2763.08,672.42 2741.4,672.42C2719.71,672.42 2708.87,689.35 2708.87,723.19L2708.87,1007.04C2708.87,1020 2711.38,1030.71 2716.41,1039.04C2721.43,1047.5 2729.76,1051.6 2741.4,1051.6ZM3027.23,1152.34L2957.16,571.28L3076.02,571.28L3114.36,883.56L3148.07,571.28L3280.94,571.28L3320.87,883.56L3352.99,571.28L3472.25,571.28L3401.38,1152.34L3255.42,1152.34L3213.51,822.74L3177.16,1152.34L3027.23,1152.34ZM3681.4,1158.55C3640.15,1158.55 3607.23,1150.75 3582.64,1135.29C3558.18,1119.82 3540.6,1097.47 3530.02,1068.26C3519.45,1039.17 3514.16,1004 3514.16,962.89L3514.16,729.41C3514.16,675.46 3529.63,634.61 3560.56,606.85C3591.63,579.08 3634.2,565.2 3688.41,565.2C3799.99,565.2 3855.78,619.94 3855.78,729.41L3855.78,771.58C3855.78,822.74 3855.26,857.12 3854.2,874.57L3652.85,874.57L3652.85,986.95C3652.85,997.26 3653.51,1007.44 3654.7,1017.36C3656.02,1027.27 3658.93,1035.47 3663.42,1041.95C3667.92,1048.42 3675.32,1051.6 3685.37,1051.6C3699.78,1051.6 3708.77,1045.38 3712.47,1032.82C3716.04,1020.26 3717.89,1004 3717.89,983.91L3717.89,928.11L3855.78,928.11L3855.78,961.03C3855.78,1004.4 3850.36,1040.76 3839.66,1069.97C3828.95,1099.32 3810.83,1121.4 3785.45,1136.21C3760.07,1151.15 3725.3,1158.55 3681.4,1158.55ZM3652.05,805.69L3717.89,805.69L3717.89,727.42C3717.89,706.53 3715.25,691.46 3710.09,682.34C3704.94,673.08 3697.27,668.59 3686.82,668.59C3675.72,668.59 3667.26,672.95 3661.17,681.68C3655.09,690.54 3652.05,705.74 3652.05,727.42L3652.05,805.69ZM3906.16,1152.34L3906.16,571.28L4047.09,571.28L4047.09,636.07C4053.83,613.59 4065.73,596.01 4082.79,583.32C4099.84,570.76 4121.26,564.41 4147.04,564.41L4147.04,680.22C4135.67,680.22 4122.18,681.41 4106.45,683.93C4090.59,686.31 4076.84,689.61 4064.94,693.97C4053.04,698.2 4047.09,702.96 4047.09,708.12L4047.09,1152.34L3906.16,1152.34ZM4369.41,1152.34L4369.41,470.67L4505.71,470.67L4505.71,1036.13L4645.85,1036.13L4645.85,1152.34L4369.41,1152.34ZM4681.55,535.72L4681.55,420.3L4820.24,420.3L4820.24,535.72L4681.55,535.72ZM4681.55,1152.34L4681.55,571.28L4820.24,571.28L4820.24,1152.34L4681.55,1152.34ZM4875.24,1152.34L4875.24,571.28L5013.92,571.28L5013.92,645.32C5019.08,623.11 5028.73,604.2 5042.74,588.6C5056.89,573 5076.32,565.2 5101.44,565.2C5141.77,565.2 5170.99,577.5 5189.1,602.35C5207.34,627.08 5216.47,661.05 5216.47,704.15L5216.47,1152.34L5079.76,1152.34L5079.76,718.56C5079.76,707.19 5077.38,696.62 5072.76,686.97C5068.13,677.32 5060.06,672.42 5048.69,672.42C5038.12,672.42 5030.32,676.13 5025.29,683.53C5020.27,690.8 5017.1,700.06 5015.77,711.03C5014.58,722 5013.92,732.84 5013.92,743.68L5013.92,1152.34L4875.24,1152.34ZM5270.68,1152.34L5270.68,470.67L5407.78,470.67L5407.78,771.58L5474.41,571.28L5618.12,571.28L5530.99,823.93L5641.78,1152.34L5494.11,1152.34L5407.78,878.54L5407.78,1152.34L5270.68,1152.34Z" style="fill:white;"></path>        </g>    </g></svg>